<svg xmlns="http://www.w3.org/2000/svg" width="62" height="57.6" viewBox="0 0 62 57.6"><defs><style>.cls-1,.cls-2{fill:none;stroke-linecap:round;stroke-linejoin:round;stroke-width:2px}.cls-1{stroke:#efefef}.cls-2{stroke:#eaeaea}.cls-3{fill:#eaeaea}</style></defs><title>burger</title><g id="Layer_2" data-name="Layer 2"><g id="burger"><path class="cls-1" d="M1 42.2h59.5M1.5 27h59M1 56.6h59.5"/><path class="cls-2" d="M61 27C61 10.7 47.6 1 31.2 1S1.5 10.7 1.5 27"/><path class="cls-1" d="M1 41.2c5 0 5 2 9.9 2s5-2 9.9-2 5 2 9.9 2 5-2 9.9-2 5 2 9.9 2 5-2 9.9-2"/><ellipse class="cls-3" cx="43.1" cy="22.1" rx="1.1" ry="1.1"/><ellipse class="cls-3" cx="19" cy="22.1" rx="1.1" ry="1.1"/><ellipse class="cls-3" cx="23.1" cy="8" rx="1.1" ry="1.1"/><ellipse class="cls-3" cx="39" cy="7.9" rx="1.1" ry="1.1"/><ellipse class="cls-3" cx="11.8" cy="16.6" rx="1.1" ry="1.1"/><ellipse class="cls-3" cx="31" cy="15.5" rx="1.1" ry="1.1"/><ellipse class="cls-3" cx="50.3" cy="16.6" rx="1.1" ry="1.1"/></g></g></svg>