<svg xmlns="http://www.w3.org/2000/svg" width="100" height="94" viewBox="0 0 100 94"><defs><style>.cls-1{fill:#f2f2f2}</style></defs><title>coct-logo</title><g id="Layer_2" data-name="Layer 2"><g id="Layer_1-2" data-name="Layer 1"><path class="cls-1" d="M100 47l-9.7-5.6 5.4-9.3-10-17.2H75V3.7l-9.7 5.6L59.9 0H40.1l-5.4 9.3L25 3.7v11.2H14.3L4.4 32.1l5.4 9.3L0 47l9.7 5.6-5.3 9.3L14.3 79H25v11.3l9.7-5.6 5.4 9.3h19.8l5.4-9.3 9.7 5.6V79h10.7l9.9-17.1-5.4-9.3zM50 82.8A35.8 35.8 0 1 1 85.8 47 35.8 35.8 0 0 1 50 82.8z"/><path class="cls-1" d="M83.7 39.9L77 36l4-7h-8v-7.6l-12.3-7.1-6.7 3.8-4-7-4 7-6.7-3.8L27 21.4v7.7h-8l4 7-6.7 3.8v14.2l6.7 3.8-4 7h8v7.7l12.3 7.1 6.7-3.9 4 7 4-7 6.7 3.8 12.3-7v-7.7h8l-4-7 6.7-3.8zM62.8 69.2a25.7 25.7 0 1 1 9.4-35 25.7 25.7 0 0 1-9.4 35z"/><path class="cls-1" d="M68.4 47A18.4 18.4 0 1 1 50 28.6 18.4 18.4 0 0 1 68.4 47m2.3-2.9l2.8-4.8-5.1-8.8h-5.6v-5.7l-5 2.9-2.8-4.8H44.9l-2.8 4.8-5-2.9v5.8h-5.4l-5.1 8.8 2.8 4.8-5 2.9 5 2.9-2.8 4.8 5.1 8.8h5.5v5.8l5-2.9 2.8 4.8h10.1l2.8-4.8 5 2.9v-6h5.5l5.1-8.8-2.8-4.8 5-2.9z"/><path class="cls-1" d="M56.6 58.4a13.2 13.2 0 1 1 4.8-18 13.2 13.2 0 0 1-4.8 18m10.7-15l-3.4-2 2.1-3.6h-4.2v-4l-6.3-3.6-3.4 2-2.1-3.6-2.1 3.6-3.4-2-6.3 3.6v3.9h-4.1l2.1 3.6-3.4 2v7.3l3.4 2-2.1 3.6h4.1v3.9l6.3 3.6 3.4-2 2.1 3.7 2.1-3.6 3.4 2 6.3-3.6v-4h4.1l-2.1-3.6 3.4-2z"/></g></g></svg>