<svg xmlns="http://www.w3.org/2000/svg" width="250.7" height="255.8" viewBox="0 0 250.7 255.8"><defs><style>.cls-1{fill:none;stroke:#efefef;stroke-width:.75px;stroke-miterlimit:10}.cls-2{fill:#efefef}</style></defs><g id="Layer_2" data-name="Layer 2"><path class="cls-1" d="M31.9 202.5a113.2 113.2 0 00176.3 19.4" id="face"/><g id="eye_outline" data-name="eye outline"><circle class="cls-1" cx="83.3" cy="176.5" r="9.4"/><circle class="cls-1" cx="170.2" cy="176.5" r="9.4"/></g><g id="eye"><circle class="cls-2" cx="83.3" cy="176.5" r="5.2"/><circle class="cls-2" cx="170.3" cy="176.5" r="5.2"/></g><g id="freckles"><circle class="cls-2" cx="79.1" cy="203.4" r="2"/><circle class="cls-2" cx="75" cy="209.1" r="2"/><circle class="cls-2" cx="82.8" cy="209.1" r="2"/><circle class="cls-2" cx="175" cy="203.4" r="2"/><circle class="cls-2" cx="170.9" cy="209.1" r="2"/><circle class="cls-2" cx="178.7" cy="209.1" r="2"/></g><path d="M246.7 98.9c-9.2-27.2-25.5-45.5-40.1-57.5 12.8.1 17.6-2.5 17.6-2.5-23.5-1.9-23.1-10-56.8-22.5-23.9-8.9-52.5.9-53.5 1 17.7-6.7 25.2-17 25.2-17-7.7 7.7-13.6 2.5-38.9 7.4S66.5 37.1 66.5 37.1s-16.2.5-26.2 10.5-11.4 10.5-17 12.4l7.3 2.7C-8.3 101.5 1.5 168.8 1.5 168.8a137.7 137.7 0 014.2-24.2c4.7 70.4 44.9 100.7 44.9 100.7s-24.5-32.5-21.1-75.1c0 0 41.5-5.4 50.2-67.2 0 0 1.4 38.8 48.3 61 0 0-19.9-14.2-32.1-61.6 0 0 20 49.6 72.2 59.2 0 0-32.7-21.3-44.5-53.7 0 0 24.1 45.7 68.5 42.9 0 0 33.5 42.1 9.6 88.3a35 35 0 006.5-6.1 140 140 0 01-10.8 20.7s10.9-8.7 24.5-31c18.5-30.3 18.3-66.4 18.3-66.4 4.9 10.4 5.6 34 5.6 34 9.7-66.8.9-91.4.9-91.4z" stroke-linecap="round" stroke-linejoin="round" fill="none" stroke="#efefef" stroke-width=".75" id="hair"/></g></svg>