<svg xmlns="http://www.w3.org/2000/svg" width="100" height="56.6" viewBox="0 0 100 56.6"><g data-name="Layer 2"><path d="M98.8 56.6h-46a1.2 1.2 0 01-1.1-1.8l12.1-24.6h-3.3L47.7 56a1.2 1.2 0 01-1.1.7H25.5a1.2 1.2 0 01-1.1-1.8L51.9.7A1.2 1.2 0 0153 0h18.2a1.2 1.2 0 011.1.7l27.6 54.2a1.2 1.2 0 01-1.1 1.8zm-44-2.5h42L70.5 2.5H53.8L27.5 54.2h18.3l12.8-25.8a1.2 1.2 0 011.1-.7h6a1.2 1.2 0 011.1 1.8zm-35.1 2.5H1.2a1.2 1.2 0 01-1.1-1.7L27.7.7a1.2 1.2 0 011.1-.7h18.1A1.2 1.2 0 0148 1.8L20.8 56a1.2 1.2 0 01-1.1.6zM3.2 54.2h15.7l26-51.7H29.5z" fill="#f2f2f2" data-name="Layer 1"/></g></svg>