<svg xmlns="http://www.w3.org/2000/svg" width="50.5" height="60" viewBox="0 0 50.5 60"><defs><style>.cls-1{fill:#f2f2f2}</style></defs><title>sanlam-logo</title><g id="Layer_2" data-name="Layer 2"><path class="cls-1" d="M25.3 16.7a9.9 9.9 0 1 0 9.9 9.9 9.9 9.9 0 0 0-9.9-9.9m-3.6 23.9c-2.5-2.3-4.7-3.8-6.5-6.5a11.7 11.7 0 0 1-2.5-7.2 10.1 10.1 0 0 1 2-6.3c1.6-2.5 3.4-5.2 4.7-7.4.7-1.1 1.4-2.3 2-3.6S24.8 4 23 .6a.2.2 0 0 0-.2-.2.2.2 0 0 0-.2-.2h-.5c-.2.2-7 9.7-21.7 29.3a1.9 1.9 0 0 0-.4 1.4 2.8 2.8 0 0 0 .7 2l7.9 12.9c.7 1.4.9 4.1.9 6.1v4.3a3.6 3.6 0 0 0 1.8 3.2 3.2 3.2 0 0 0 1.4.5h11V48.7a39.9 39.9 0 0 0-.2-5.2 6.9 6.9 0 0 0-1.8-2.9m5.4 3.2a41.7 41.7 0 0 0-.2 5.2v11h11a3.2 3.2 0 0 0 1.4-.5 3.6 3.6 0 0 0 1.8-3.2v-4.2c0-2 .2-4.7.9-6.1l7.9-12.9a3.6 3.6 0 0 0 .7-2 3.3 3.3 0 0 0-.5-1.6C35.4 9.9 28.6.5 28.4.2V0H28l-.2.2a.2.2 0 0 1-.2.2c-2 3.4 0 6.5 1.6 9s1.4 2.5 2 3.6c1.4 2.3 3.2 5 4.7 7.4a10.1 10.1 0 0 1 2 6.3 12.1 12.1 0 0 1-2.5 7.2c-1.8 2.7-4.1 4.3-6.5 6.5a8.9 8.9 0 0 0-1.8 3.2" id="Layer_1-2" data-name="Layer 1"/></g></svg>