<svg xmlns="http://www.w3.org/2000/svg" width="100" height="94" viewBox="0 0 100 94">
  <defs>
    <style>
      .cls-1 {
        fill: #f2f2f2;
      }
    </style>
  </defs>
  <title>coct-logo</title>
  <g id="Layer_2" data-name="Layer 2">
    <g id="Layer_1-2" data-name="Layer 1">
      <g>
        <path class="cls-1" d="M100,47l-9.7-5.6,5.4-9.3L85.7,14.9H75V3.7L65.3,9.3,59.9,0H40.1L34.7,9.3,25,3.7V14.9H14.3L4.4,32.1l5.4,9.3L0,47l9.7,5.6L4.4,61.9,14.3,79H25V90.3l9.7-5.6L40.1,94H59.9l5.4-9.3L75,90.3V79H85.7l9.9-17.1-5.4-9.3ZM50,82.8A35.8,35.8,0,1,1,85.8,47,35.8,35.8,0,0,1,50,82.8Z"/>
        <path class="cls-1" d="M83.7,39.9,77,36l4-7H73V21.4L60.7,14.3,54,18.1l-4-7-4,7-6.7-3.8L27,21.4v7.7H19l4,7-6.7,3.8V54.1L23,57.9l-4,7H27v7.7l12.3,7.1L46,75.8l4,7,4-7,6.7,3.8L73,72.6V64.9H81l-4-7,6.7-3.8ZM62.8,69.2a25.7,25.7,0,1,1,9.4-35A25.7,25.7,0,0,1,62.8,69.2Z"/>
        <path class="cls-1" d="M68.4,47A18.4,18.4,0,1,1,50,28.6,18.4,18.4,0,0,1,68.4,47m2.3-2.9,2.8-4.8-5.1-8.8H62.8V24.8l-5,2.9-2.8-4.8H44.9l-2.8,4.8-5-2.9v5.8H31.7l-5.1,8.8,2.8,4.8-5,2.9,5,2.9-2.8,4.8,5.1,8.8h5.5v5.8l5-2.9,2.8,4.8H55.1l2.8-4.8,5,2.9V63.4h5.5l5.1-8.8-2.8-4.8,5-2.9Z"/>
        <path class="cls-1" d="M56.6,58.4a13.2,13.2,0,1,1,4.8-18,13.2,13.2,0,0,1-4.8,18m10.7-15-3.4-2,2.1-3.6H61.8V33.8l-6.3-3.6-3.4,2L50,28.6l-2.1,3.6-3.4-2-6.3,3.6v3.9H34.1l2.1,3.6-3.4,2v7.3l3.4,2-2.1,3.6h4.1v3.9l6.3,3.6,3.4-2L50,65.4l2.1-3.6,3.4,2,6.3-3.6V56.2h4.1l-2.1-3.6,3.4-2Z"/>
      </g>
    </g>
  </g>
</svg>
