<svg xmlns="http://www.w3.org/2000/svg" width="100" height="56.6" viewBox="0 0 100 56.6">
  <defs>
    <style>
      .cls-1 {
        fill: #f2f2f2;
      }
    </style>
  </defs>
  <title>morbo-logo</title>
  <g id="Layer_2" data-name="Layer 2">
    <g id="Layer_1-2" data-name="Layer 1">
      <path class="cls-1" d="M98.8,56.6h-46a1.2,1.2,0,0,1-1.1-1.8L63.8,30.2H60.5L47.7,56a1.2,1.2,0,0,1-1.1.7H25.5a1.2,1.2,0,0,1-1.1-1.8L51.9.7A1.2,1.2,0,0,1,53,0H71.2a1.2,1.2,0,0,1,1.1.7L99.9,54.9a1.2,1.2,0,0,1-1.1,1.8Zm-44-2.5h42L70.5,2.5H53.8L27.5,54.2H45.8L58.6,28.4a1.2,1.2,0,0,1,1.1-.7h6a1.2,1.2,0,0,1,1.1,1.8ZM19.7,56.6H1.2A1.2,1.2,0,0,1,.1,54.9L27.7.7A1.2,1.2,0,0,1,28.8,0H46.9A1.2,1.2,0,0,1,48,1.8L20.8,56A1.2,1.2,0,0,1,19.7,56.6ZM3.2,54.2H18.9l26-51.7H29.5Z"/>
    </g>
  </g>
</svg>
