<svg xmlns="http://www.w3.org/2000/svg" width="44.4" height="60" viewBox="0 0 44.4 60">
  <defs>
    <style>
      .cls-1 {
        fill: #fff;
      }
    </style>
  </defs>
  <title>private-logo</title>
  <g id="Layer_2" data-name="Layer 2">
    <g id="Layer_1-2" data-name="Layer 1">
      <path class="cls-1" d="M8.5,60l-2-1.2L37.7,0l2,1.2-.3.3Zm31.8-1.7H27.6l.4-1.8h4.2L39,28.9l-.9.7-2,1.2-2,1.2a18.3,18.3,0,0,1-1.7.8H32L31.6,31h.3l2.2-1.2L36.9,28l2.9-2,2.8-2.2h1.8l-8,32.6H41ZM12.9,35.7H0l.4-1.8H4.6L11.4,6.3l-.9.5L8.5,8,6.7,9.1,5,10H4.6L4.2,8.4h.3L6.7,7.1,9.5,5.4l2.9-2,2.8-2.1h1.8L8.8,33.7h4.6Z"/>
    </g>
  </g>
</svg>
